<?xml version="1.0" encoding="UTF-8"?>
<svg version="1.1" xmlns="http://www.w3.org/2000/svg" width="100" height="100">
<path d="M0 0 C33 0 66 0 100 0 C100 33 100 66 100 100 C67 100 34 100 0 100 C0 67 0 34 0 0 Z " fill="#EFEFEE" transform="translate(0,0)"/>
<path d="M0 0 C2.95104722 1.44736476 5.54070063 3.30430341 8.171875 5.25390625 C9.41275841 6.15755484 10.65364394 7.06120052 11.89453125 7.96484375 C12.55855957 8.45178711 13.22258789 8.93873047 13.90673828 9.44042969 C16.19389072 11.11130856 18.4920297 12.76613182 20.79296875 14.41796875 C22.39847977 15.57155575 24.00394906 16.72520085 25.609375 17.87890625 C26.37072754 18.42579102 27.13208008 18.97267578 27.91650391 19.53613281 C36.34217641 25.61520215 36.34217641 25.61520215 39.046875 28.00390625 C39.046875 28.66390625 39.046875 29.32390625 39.046875 30.00390625 C34.296875 28.12890625 34.296875 28.12890625 32.046875 27.00390625 C32.046875 37.56390625 32.046875 48.12390625 32.046875 59.00390625 C34.026875 59.00390625 36.006875 59.00390625 38.046875 59.00390625 C38.046875 60.65390625 38.046875 62.30390625 38.046875 64.00390625 C36.396875 64.33390625 34.746875 64.66390625 33.046875 65.00390625 C32.551875 66.98390625 32.551875 66.98390625 32.046875 69.00390625 C23.71958553 69.02703309 15.39230937 69.04482308 7.06499577 69.05571842 C3.19867382 69.06094651 -0.66762621 69.06804279 -4.53393555 69.0793457 C-8.26215901 69.09017725 -11.99036134 69.09618365 -15.71859932 69.09878349 C-17.14402156 69.10063726 -18.56944259 69.10425696 -19.99485588 69.10963631 C-21.98475908 69.11685018 -23.97468334 69.11731433 -25.96459961 69.11743164 C-27.09933212 69.11965225 -28.23406464 69.12187286 -29.40318298 69.12416077 C-31.953125 69.00390625 -31.953125 69.00390625 -32.953125 68.00390625 C-33.04183773 64.97412821 -33.0683185 61.96723603 -33.05078125 58.9375 C-33.0493663 58.02887711 -33.04795135 57.12025421 -33.04649353 56.18409729 C-33.04087693 53.26983404 -33.02832165 50.35564644 -33.015625 47.44140625 C-33.01061214 45.47070423 -33.00604886 43.50000101 -33.00195312 41.52929688 C-32.99090211 36.68747066 -32.97362638 31.8457013 -32.953125 27.00390625 C-33.55125 27.49890625 -34.149375 27.99390625 -34.765625 28.50390625 C-36.953125 30.00390625 -36.953125 30.00390625 -39.953125 30.00390625 C-38.71401589 26.28657891 -37.44302776 25.66326891 -34.265625 23.44140625 C-33.27046875 22.73757812 -32.2753125 22.03375 -31.25 21.30859375 C-30.71439453 20.93444336 -30.17878906 20.56029297 -29.62695312 20.17480469 C-27.33550951 18.57186368 -25.05784193 16.94996748 -22.78149414 15.32568359 C-21.60270327 14.48506375 -20.4221926 13.64685044 -19.23999023 12.81103516 C-16.2852808 10.71335807 -13.37967266 8.5773993 -10.53515625 6.33203125 C-9.99431396 5.90913818 -9.45347168 5.48624512 -8.89624023 5.05053711 C-7.41508373 3.88484411 -5.94543494 2.70457192 -4.4765625 1.5234375 C-1.953125 0.00390625 -1.953125 0.00390625 0 0 Z " fill="#F6F3EE" transform="translate(50.953125,14.99609375)"/>
<path d="M0 0 C0.495 1.485 0.495 1.485 1 3 C3.475 3.495 3.475 3.495 6 4 C6.1875 6.875 6.1875 6.875 6 10 C5.01 10.66 4.02 11.32 3 12 C2.27034634 14.56282742 2.27034634 14.56282742 2 17 C-1.96 17.495 -1.96 17.495 -6 18 C-5.67 18.33 -5.34 18.66 -5 19 C-4.95907063 21.33297433 -4.95758277 23.66705225 -5 26 C-4.34 25.67 -3.68 25.34 -3 25 C-2.59270772 22.67843403 -2.25561323 20.3431213 -2 18 C-0.35 18.33 1.3 18.66 3 19 C3.09706112 25.11485027 2.77040851 30.93303301 2 37 C0.35 36.67 -1.3 36.34 -3 36 C-3 34.02 -3 32.04 -3 30 C-3.99 30 -4.98 30 -6 30 C-6 32.31 -6 34.62 -6 37 C-7.66611905 37.042721 -9.33382885 37.04063832 -11 37 C-12 36 -12 36 -12.09765625 33.49609375 C-12.08605469 32.48675781 -12.07445313 31.47742188 -12.0625 30.4375 C-12.05347656 29.42558594 -12.04445313 28.41367187 -12.03515625 27.37109375 C-12.02355469 26.58863281 -12.01195313 25.80617188 -12 25 C-12.78375 25.804375 -13.5675 26.60875 -14.375 27.4375 C-18.00398406 30.98007968 -18.00398406 30.98007968 -22.125 31.0625 C-23.07375 31.041875 -24.0225 31.02125 -25 31 C-25 33.31 -25 35.62 -25 38 C-26.66611905 38.042721 -28.33382885 38.04063832 -30 38 C-31 37 -31 37 -31.25 34.25 C-31.20074802 28.37670142 -29.42960219 22.65884201 -28 17 C-28.66 17 -29.32 17 -30 17 C-30 18.98 -30 20.96 -30 23 C-31.32 22.67 -32.64 22.34 -34 22 C-34.3125 19.75 -34.3125 19.75 -34 17 C-32.25 14.6875 -32.25 14.6875 -29 13 C-18.92115065 11.7624878 -18.92115065 11.7624878 -14.62890625 14.52734375 C-14.09136719 15.01332031 -13.55382812 15.49929687 -13 16 C-12.67 15.01 -12.34 14.02 -12 13 C-14.475 12.505 -14.475 12.505 -17 12 C-17.6875 9.1875 -17.6875 9.1875 -18 6 C-15.96368242 2.64606516 -12.6072546 2.07450137 -9 1 C-6.04335481 -0.4783226 -3.25770263 -0.06032783 0 0 Z " fill="#C4733B" transform="translate(57,30)"/>
<path d="M0 0 C2.95104722 1.44736476 5.54070063 3.30430341 8.171875 5.25390625 C9.41275841 6.15755484 10.65364394 7.06120052 11.89453125 7.96484375 C12.55855957 8.45178711 13.22258789 8.93873047 13.90673828 9.44042969 C16.19389072 11.11130856 18.4920297 12.76613182 20.79296875 14.41796875 C22.39847977 15.57155575 24.00394906 16.72520085 25.609375 17.87890625 C26.37072754 18.42579102 27.13208008 18.97267578 27.91650391 19.53613281 C36.34217641 25.61520215 36.34217641 25.61520215 39.046875 28.00390625 C39.046875 28.66390625 39.046875 29.32390625 39.046875 30.00390625 C36.0749365 28.87938898 33.71246813 27.78096834 31.046875 26.00390625 C31.046875 30.29390625 31.046875 34.58390625 31.046875 39.00390625 C30.716875 39.00390625 30.386875 39.00390625 30.046875 39.00390625 C30.17191406 38.0603125 30.29695313 37.11671875 30.42578125 36.14453125 C30.86309922 28.66334828 30.86309922 28.66334828 27.50830078 22.24462891 C23.40188716 18.77525588 18.82446834 16.04610599 14.20263672 13.32324219 C10.31264561 10.94255001 6.82747944 8.05113203 3.24609375 5.234375 C1.18661471 3.79341224 1.18661471 3.79341224 -0.83764648 4.25634766 C-3.24431998 5.10680747 -4.94351217 6.22358015 -7 7.734375 C-7.763125 8.29060547 -8.52625 8.84683594 -9.3125 9.41992188 C-10.10140625 10.00451172 -10.8903125 10.58910156 -11.703125 11.19140625 C-12.4765625 11.75666016 -13.25 12.32191406 -14.046875 12.90429688 C-15.6020621 14.04328877 -17.14388552 15.20074996 -18.671875 16.37597656 C-20.953125 18.00390625 -20.953125 18.00390625 -23.296875 19.13964844 C-25.92713827 20.53989054 -27.27864801 21.51494479 -28.953125 24.00390625 C-29.94934986 29.99021989 -29.70650957 35.83592324 -29.453125 41.87890625 C-29.41296738 43.53767499 -29.37647055 45.19653665 -29.34375 46.85546875 C-29.25587567 50.90725059 -29.11801627 54.95455713 -28.953125 59.00390625 C-27.963125 59.00390625 -26.973125 59.00390625 -25.953125 59.00390625 C-25.953125 58.01390625 -25.953125 57.02390625 -25.953125 56.00390625 C-22.323125 56.00390625 -18.693125 56.00390625 -14.953125 56.00390625 C-14.623125 57.65390625 -14.293125 59.30390625 -13.953125 61.00390625 C-16.923125 61.00390625 -19.893125 61.00390625 -22.953125 61.00390625 C-23.283125 62.65390625 -23.613125 64.30390625 -23.953125 66.00390625 C-18.343125 66.00390625 -12.733125 66.00390625 -6.953125 66.00390625 C-6.953125 64.35390625 -6.953125 62.70390625 -6.953125 61.00390625 C-8.933125 60.67390625 -10.913125 60.34390625 -12.953125 60.00390625 C-12.623125 58.68390625 -12.293125 57.36390625 -11.953125 56.00390625 C-7.663125 56.00390625 -3.373125 56.00390625 1.046875 56.00390625 C1.541875 58.47890625 1.541875 58.47890625 2.046875 61.00390625 C1.056875 61.00390625 0.066875 61.00390625 -0.953125 61.00390625 C-0.953125 61.99390625 -0.953125 62.98390625 -0.953125 64.00390625 C0.696875 64.00390625 2.346875 64.00390625 4.046875 64.00390625 C3.551875 60.04390625 3.551875 60.04390625 3.046875 56.00390625 C10.306875 56.00390625 17.566875 56.00390625 25.046875 56.00390625 C25.541875 59.96390625 25.541875 59.96390625 26.046875 64.00390625 C22.746875 64.00390625 19.446875 64.00390625 16.046875 64.00390625 C16.046875 64.66390625 16.046875 65.32390625 16.046875 66.00390625 C9.611875 66.49890625 9.611875 66.49890625 3.046875 67.00390625 C3.046875 67.33390625 3.046875 67.66390625 3.046875 68.00390625 C-8.833125 68.00390625 -20.713125 68.00390625 -32.953125 68.00390625 C-32.953125 54.47390625 -32.953125 40.94390625 -32.953125 27.00390625 C-34.273125 27.99390625 -35.593125 28.98390625 -36.953125 30.00390625 C-37.943125 30.00390625 -38.933125 30.00390625 -39.953125 30.00390625 C-38.71401589 26.28657891 -37.44302776 25.66326891 -34.265625 23.44140625 C-33.27046875 22.73757812 -32.2753125 22.03375 -31.25 21.30859375 C-30.71439453 20.93444336 -30.17878906 20.56029297 -29.62695312 20.17480469 C-27.33550951 18.57186368 -25.05784193 16.94996748 -22.78149414 15.32568359 C-21.60270327 14.48506375 -20.4221926 13.64685044 -19.23999023 12.81103516 C-16.2852808 10.71335807 -13.37967266 8.5773993 -10.53515625 6.33203125 C-9.99431396 5.90913818 -9.45347168 5.48624512 -8.89624023 5.05053711 C-7.41508373 3.88484411 -5.94543494 2.70457192 -4.4765625 1.5234375 C-1.953125 0.00390625 -1.953125 0.00390625 0 0 Z " fill="#DEC9A1" transform="translate(50.953125,14.99609375)"/>
<path d="M0 0 C2.31856553 0.81199618 3.97296053 1.84848831 5.96508789 3.28295898 C6.68760742 3.79858398 7.41012695 4.31420898 8.15454102 4.84545898 C8.90026367 5.38686523 9.64598633 5.92827148 10.41430664 6.48608398 C11.14842773 7.01202148 11.88254883 7.53795898 12.63891602 8.07983398 C14.09922614 9.12679989 15.55193727 10.1844519 16.99658203 11.25292969 C19.05215922 12.7567862 19.05215922 12.7567862 21.18945312 13.89697266 C23.1692558 15.0434381 24.61739649 15.99114701 26.10180664 17.73608398 C26.93298417 21.05258308 26.76946131 24.15696405 26.53930664 27.54858398 C26.50772461 28.43223633 26.47614258 29.31588867 26.44360352 30.22631836 C26.36144406 32.39767539 26.23589153 34.56731411 26.10180664 36.73608398 C25.44180664 35.74608398 24.78180664 34.75608398 24.10180664 33.73608398 C22.66865704 31.38361413 22.66865704 31.38361413 20.10180664 29.73608398 C16.74291074 29.3928006 13.46605689 29.50495229 10.10180664 29.73608398 C9.77180664 30.39608398 9.44180664 31.05608398 9.10180664 31.73608398 C6.62680664 30.74608398 6.62680664 30.74608398 4.10180664 29.73608398 C4.10180664 32.04608398 4.10180664 34.35608398 4.10180664 36.73608398 C2.61680664 37.23108398 2.61680664 37.23108398 1.10180664 37.73608398 C1.01930664 36.62233398 0.93680664 35.50858398 0.85180664 34.36108398 C0.60430664 33.16483398 0.35680664 31.96858398 0.10180664 30.73608398 C-1.21819336 30.07608398 -2.53819336 29.41608398 -3.89819336 28.73608398 C0.06180664 28.73608398 4.02180664 28.73608398 8.10180664 28.73608398 C8.10180664 27.08608398 8.10180664 25.43608398 8.10180664 23.73608398 C9.09180664 23.07608398 10.08180664 22.41608398 11.10180664 21.73608398 C11.35202234 18.65242528 11.35202234 18.65242528 11.10180664 15.73608398 C10.46243164 15.61233398 9.82305664 15.48858398 9.16430664 15.36108398 C8.48368164 15.15483398 7.80305664 14.94858398 7.10180664 14.73608398 C6.60680664 13.74608398 6.60680664 13.74608398 6.10180664 12.73608398 C0.7801017 12.44046031 0.7801017 12.44046031 -3.89819336 14.73608398 C-5.88619154 15.4377304 -7.88517852 16.1098127 -9.89819336 16.73608398 C-10.64776493 20.20756241 -10.64776493 20.20756241 -10.89819336 23.73608398 C-9.24819336 24.06608398 -7.59819336 24.39608398 -5.89819336 24.73608398 C-6.22819336 26.05608398 -6.55819336 27.37608398 -6.89819336 28.73608398 C-7.43573242 28.2475293 -7.97327148 27.75897461 -8.52709961 27.25561523 C-11.50063766 25.35000354 -13.32931176 25.36610232 -16.83569336 25.42358398 C-18.36516602 25.42938477 -18.36516602 25.42938477 -19.92553711 25.43530273 C-22.93328973 25.73963513 -25.16700117 26.4735992 -27.89819336 27.73608398 C-28.22819336 25.09608398 -28.55819336 22.45608398 -28.89819336 19.73608398 C-24.9957165 16.79820931 -21.08994105 13.86508026 -17.17553711 10.94311523 C-14.60791788 9.02522372 -12.05631794 7.09100288 -9.52709961 5.12280273 C-8.10204102 4.03418945 -8.10204102 4.03418945 -6.64819336 2.92358398 C-5.81803711 2.27776367 -4.98788086 1.63194336 -4.13256836 0.96655273 C-1.89819336 -0.26391602 -1.89819336 -0.26391602 0 0 Z " fill="#FCFBF9" transform="translate(50.898193359375,18.263916015625)"/>
<path d="M0 0 C1.98 0 3.96 0 6 0 C6 1.65 6 3.3 6 5 C7.98 5 9.96 5 12 5 C12 3.35 12 1.7 12 0 C13.65 0 15.3 0 17 0 C17 12.21 17 24.42 17 37 C11.39 37 5.78 37 0 37 C0 35.35 0 33.7 0 32 C-1.65 32 -3.3 32 -5 32 C-5 30.35 -5 28.7 -5 27 C-3.35 27 -1.7 27 0 27 C-0.01160156 26.28972656 -0.02320312 25.57945313 -0.03515625 24.84765625 C-0.04869141 23.46900391 -0.04869141 23.46900391 -0.0625 22.0625 C-0.07410156 21.14597656 -0.08570312 20.22945312 -0.09765625 19.28515625 C0 17 0 17 1 16 C2.66617115 15.95936168 4.33388095 15.957279 6 16 C6 14.35 6 12.7 6 11 C4.02 11 2.04 11 0 11 C0 7.37 0 3.74 0 0 Z " fill="#FCFCFC" transform="translate(83,63)"/>
<path d="M0 0 C0.33 0 0.66 0 1 0 C2.03334237 6.71672543 2.07723467 13.20334892 2 20 C9.59 20 17.18 20 25 20 C25 18.35 25 16.7 25 15 C22.03 14.505 22.03 14.505 19 14 C19.33 12.68 19.66 11.36 20 10 C24.29 10 28.58 10 33 10 C33.495 12.475 33.495 12.475 34 15 C33.01 15 32.02 15 31 15 C31 15.99 31 16.98 31 18 C32.65 18 34.3 18 36 18 C35.505 14.04 35.505 14.04 35 10 C42.26 10 49.52 10 57 10 C57.495 13.96 57.495 13.96 58 18 C54.7 18 51.4 18 48 18 C48 18.66 48 19.32 48 20 C41.565 20.495 41.565 20.495 35 21 C35 21.33 35 21.66 35 22 C23.45 22 11.9 22 0 22 C0 14.74 0 7.48 0 0 Z " fill="#F1F1F1" transform="translate(19,61)"/>
<path d="M0 0 C1.65 0 3.3 0 5 0 C5 1.98 5 3.96 5 6 C6.98 6 8.96 6 11 6 C11 7.65 11 9.3 11 11 C9.02 11 7.04 11 5 11 C5 12.65 5 14.3 5 16 C6.98 16 8.96 16 11 16 C11 17.65 11 19.3 11 21 C12.65 21 14.3 21 16 21 C16 19.35 16 17.7 16 16 C17.65 16 19.3 16 21 16 C20.62207203 18.67456717 20.20233084 19.80611814 18.22265625 21.703125 C17.50980469 22.21359375 16.79695313 22.7240625 16.0625 23.25 C15.35222656 23.77078125 14.64195313 24.2915625 13.91015625 24.828125 C12 26 12 26 10 26 C10 24.68 10 23.36 10 22 C8.35 22 6.7 22 5 22 C5 23.32 5 24.64 5 26 C3.35 26 1.7 26 0 26 C-0.33 25.01 -0.66 24.02 -1 23 C-2.65 22.67 -4.3 22.34 -6 22 C-6 23.32 -6 24.64 -6 26 C-7.98 26 -9.96 26 -12 26 C-12 24.35 -12 22.7 -12 21 C-10.02 21 -8.04 21 -6 21 C-6 19.35 -6 17.7 -6 16 C-4.35 16 -2.7 16 -1 16 C-1 14.35 -1 12.7 -1 11 C-2.65 11 -4.3 11 -6 11 C-6 9.35 -6 7.7 -6 6 C-4.02 6 -2.04 6 0 6 C0 4.02 0 2.04 0 0 Z " fill="#E9E9E9" transform="translate(17,5)"/>
<path d="M0 0 C1.98 0 3.96 0 6 0 C6 1.65 6 3.3 6 5 C7.98 5 9.96 5 12 5 C12 6.98 12 8.96 12 11 C10.02 11 8.04 11 6 11 C6 12.65 6 14.3 6 16 C7.98 16 9.96 16 12 16 C12 17.65 12 19.3 12 21 C10.02 21 8.04 21 6 21 C6 22.65 6 24.3 6 26 C4.35 26 2.7 26 1 26 C1 24.35 1 22.7 1 21 C-0.98 21 -2.96 21 -5 21 C-5 19.35 -5 17.7 -5 16 C-3.35 16 -1.7 16 0 16 C0 14.35 0 12.7 0 11 C-1.65 11 -3.3 11 -5 11 C-5 9.02 -5 7.04 -5 5 C-3.35 5 -1.7 5 0 5 C0 3.35 0 1.7 0 0 Z " fill="#F3F4F4" transform="translate(77,0)"/>
<path d="M0 0 C1.32 0.99 2.64 1.98 4 3 C4.28636359 5.590973 4.33147277 7.72373566 4.171875 10.29296875 C4.14401917 10.99899734 4.11616333 11.70502594 4.08746338 12.43244934 C3.99415618 14.68545661 3.87246051 16.93590751 3.75 19.1875 C3.68171885 20.71541216 3.61529019 22.24340831 3.55078125 23.77148438 C3.38866061 27.51563627 3.20107068 31.25774587 3 35 C4.98 35 6.96 35 9 35 C9 36.65 9 38.3 9 40 C7.35 40.33 5.7 40.66 4 41 C3.67 42.32 3.34 43.64 3 45 C-18.12 45 -39.24 45 -61 45 C-61 44.67 -61 44.34 -61 44 C-49.78 43.67 -38.56 43.34 -27 43 C-27 42.67 -27 42.34 -27 42 C-18.75 42 -10.5 42 -2 42 C-2 41.34 -2 40.68 -2 40 C-1.34 40 -0.68 40 0 40 C0 26.8 0 13.6 0 0 Z " fill="#E1CFAF" transform="translate(80,39)"/>
<path d="M0 0 C5 2 5 2 7 4 C6.625 7.125 6.625 7.125 6 10 C7.98 10 9.96 10 12 10 C12 11.65 12 13.3 12 15 C13.65 15 15.3 15 17 15 C17 16.98 17 18.96 17 21 C15.35 21 13.7 21 12 21 C12 22.65 12 24.3 12 26 C10.02 26 8.04 26 6 26 C6 24.35 6 22.7 6 21 C4.02 21 2.04 21 0 21 C0 14.07 0 7.14 0 0 Z " fill="#EFEFEF" transform="translate(83,42)"/>
<path d="M0 0 C1.65 0 3.3 0 5 0 C5 1.65 5 3.3 5 5 C6.98 5 8.96 5 11 5 C11 3.35 11 1.7 11 0 C11.33 0 11.66 0 12 0 C12 5.28 12 10.56 12 16 C11.67 16 11.34 16 11 16 C11 14.35 11 12.7 11 11 C9.02 11 7.04 11 5 11 C5 12.65 5 14.3 5 16 C3.35 16 1.7 16 0 16 C-0.33 17.65 -0.66 19.3 -1 21 C-2.65 21 -4.3 21 -6 21 C-6 16.05 -6 11.1 -6 6 C-4.35 5.67 -2.7 5.34 -1 5 C-0.67 3.35 -0.34 1.7 0 0 Z " fill="#F1F1F1" transform="translate(6,63)"/>
<path d="M0 0 C1.98 0 3.96 0 6 0 C6 1.65 6 3.3 6 5 C9.63 5 13.26 5 17 5 C17 6.98 17 8.96 17 11 C13.37 11 9.74 11 6 11 C6.33 12.32 6.66 13.64 7 15 C5.75945552 16.01170618 4.5071298 17.00897797 3.25 18 C2.55390625 18.556875 1.8578125 19.11375 1.140625 19.6875 C-1 21 -1 21 -5 21 C-5 19.35 -5 17.7 -5 16 C-3.35 16 -1.7 16 0 16 C0 14.02 0 12.04 0 10 C-1.65 10 -3.3 10 -5 10 C-5 8.35 -5 6.7 -5 5 C-3.35 5 -1.7 5 0 5 C0 3.35 0 1.7 0 0 Z " fill="#E8E8E8" transform="translate(44,0)"/>
<path d="M0 0 C2.5 1.0625 2.5 1.0625 4 3 C4.46369995 7.25058287 4.33012265 10.35918336 2 14 C2.99 14.66 3.98 15.32 5 16 C4.67 17.32 4.34 18.64 4 20 C2.68 20.33 1.36 20.66 0 21 C-3 17.375 -3 17.375 -3 14 C-2.34 13.67 -1.68 13.34 -1 13 C-1 12.01 -1 11.02 -1 10 C-1.66 9.67 -2.32 9.34 -3 9 C-2.34 7.35 -1.68 5.7 -1 4 C-1.66 4 -2.32 4 -3 4 C-3 6.97 -3 9.94 -3 13 C-3.66 13 -4.32 13 -5 13 C-5 15.31 -5 17.62 -5 20 C-6.65 19.67 -8.3 19.34 -10 19 C-10 13.06 -10 7.12 -10 1 C-6.8039073 -0.59804635 -3.47628983 -0.36411731 0 0 Z " fill="#C4723C" transform="translate(71,47)"/>
<path d="M0 0 C2.875 2.0625 2.875 2.0625 5 4 C4.67 5.32 4.34 6.64 4 8 C2.35 8 0.7 8 -1 8 C-0.34 8.33 0.32 8.66 1 9 C0.67 10.32 0.34 11.64 0 13 C-5.445 13.495 -5.445 13.495 -11 14 C-10 9 -10 9 -9 8 C-11.31 8 -13.62 8 -16 8 C-15.67 6.35 -15.34 4.7 -15 3 C-13.02 3 -11.04 3 -9 3 C-8.67 2.01 -8.34 1.02 -8 0 C-5.0233079 -1.48834605 -3.18307201 -0.8113713 0 0 Z " fill="#F0F2F4" transform="translate(57,32)"/>
<path d="M0 0 C1.98 0 3.96 0 6 0 C6 1.65 6 3.3 6 5 C7.98 5 9.96 5 12 5 C12 3.35 12 1.7 12 0 C13.65 0 15.3 0 17 0 C17 3.3 17 6.6 17 10 C15.02 10 13.04 10 11 10 C11 11.98 11 13.96 11 16 C9.35 16 7.7 16 6 16 C6 14.35 6 12.7 6 11 C4.02 11 2.04 11 0 11 C0 7.37 0 3.74 0 0 Z " fill="#FBFBFC" transform="translate(83,63)"/>
<path d="M0 0 C1.98 0 3.96 0 6 0 C6 5.61 6 11.22 6 17 C4.35 17 2.7 17 1 17 C0.67 18.65 0.34 20.3 0 22 C-1.65 22 -3.3 22 -5 22 C-5 20.02 -5 18.04 -5 16 C-3.35 16 -1.7 16 0 16 C0 14.68 0 13.36 0 12 C-1.65 12 -3.3 12 -5 12 C-5 10.02 -5 8.04 -5 6 C-3.35 6 -1.7 6 0 6 C0 4.02 0 2.04 0 0 Z " fill="#EFEFEF" transform="translate(94,73)"/>
<path d="M0 0 C0 5.28 0 10.56 0 16 C-0.33 16 -0.66 16 -1 16 C-1 14.02 -1 12.04 -1 10 C-2.98 10 -4.96 10 -7 10 C-7 11.65 -7 13.3 -7 15 C-8.65 15 -10.3 15 -12 15 C-12 13.35 -12 11.7 -12 10 C-13.98 10 -15.96 10 -18 10 C-18 8.35 -18 6.7 -18 5 C-16.02 5 -14.04 5 -12 5 C-12 3.68 -12 2.36 -12 1 C-10.35 1 -8.7 1 -7 1 C-7 1.66 -7 2.32 -7 3 C-6.21625 2.505 -5.4325 2.01 -4.625 1.5 C-2 0 -2 0 0 0 Z " fill="#F4F4F5" transform="translate(18,42)"/>
<path d="M0 0 C1.45212891 0.30357422 1.45212891 0.30357422 2.93359375 0.61328125 C4.38958984 0.89751953 4.38958984 0.89751953 5.875 1.1875 C8.37109375 1.92578125 8.37109375 1.92578125 10.37109375 3.92578125 C10.8257896 7.41178273 10.8791873 9.21445029 8.80859375 12.11328125 C5.78390187 14.36241111 2.88693331 15.57353527 -0.62890625 16.92578125 C-1.9639108 11.58576304 -1.14145125 8.0862289 0.37109375 2.92578125 C-0.28890625 2.92578125 -0.94890625 2.92578125 -1.62890625 2.92578125 C-1.62890625 4.90578125 -1.62890625 6.88578125 -1.62890625 8.92578125 C-2.94890625 8.59578125 -4.26890625 8.26578125 -5.62890625 7.92578125 C-5.99114288 3.45819616 -5.99114288 3.45819616 -4.46484375 1.21484375 C-2.62890625 -0.07421875 -2.62890625 -0.07421875 0 0 Z " fill="#CE8349" transform="translate(28.62890625,44.07421875)"/>
<path d="M0 0 C4.05675599 0.41510991 6.95283186 2.89954079 10.125 5.25 C11.36588341 6.15364859 12.60676894 7.05729427 13.84765625 7.9609375 C14.51168457 8.44788086 15.17571289 8.93482422 15.85986328 9.43652344 C18.14701572 11.10740231 20.4451547 12.76222557 22.74609375 14.4140625 C24.35160477 15.5676495 25.95707406 16.7212946 27.5625 17.875 C28.32385254 18.42188477 29.08520508 18.96876953 29.86962891 19.53222656 C38.29530141 25.6112959 38.29530141 25.6112959 41 28 C41 28.66 41 29.32 41 30 C38.0280615 28.87548273 35.66559313 27.77706209 33 26 C33 30.29 33 34.58 33 39 C32.67 39 32.34 39 32 39 C32.12503906 38.05640625 32.25007813 37.1128125 32.37890625 36.140625 C32.81622422 28.65944203 32.81622422 28.65944203 29.46142578 22.24072266 C25.35238718 18.76913187 20.77210783 16.04299406 16.14697266 13.31933594 C12.30600257 10.95902182 8.89517635 8.06378571 5.39453125 5.23046875 C2.23791839 3.60839199 0.36516191 4.1282721 -3 5 C-1.125 1.125 -1.125 1.125 0 0 Z " fill="#B18C53" transform="translate(49,15)"/>
<path d="M0 0 C1.32 0.99 2.64 1.98 4 3 C4.37817383 6.13525391 4.37817383 6.13525391 4.20703125 9.9765625 C4.18154709 10.66124603 4.15606293 11.34592957 4.12980652 12.05136108 C4.04315749 14.24386352 3.92786221 16.43384056 3.8125 18.625 C3.75275255 20.07674977 3.69479086 21.52857419 3.63867188 22.98046875 C3.34871571 30.01950854 2.90329426 37.00928787 2 44 C-8.55808656 44.18451025 -8.55808656 44.18451025 -13 43 C-13 42.67 -13 42.34 -13 42 C-9.37 42 -5.74 42 -2 42 C-2 41.34 -2 40.68 -2 40 C-1.34 40 -0.68 40 0 40 C0 26.8 0 13.6 0 0 Z " fill="#F2E1BD" transform="translate(80,39)"/>
<path d="M0 0 C1.65 0 3.3 0 5 0 C5.33 1.32 5.66 2.64 6 4 C7.65 4 9.3 4 11 4 C11 2.68 11 1.36 11 0 C12.65 0 14.3 0 16 0 C16.39453125 2.16796875 16.39453125 2.16796875 16 5 C13.91659763 7.03584968 12.02690493 8.63439338 9.6875 10.3125 C9.09259766 10.76689453 8.49769531 11.22128906 7.88476562 11.68945312 C3.42921758 15 3.42921758 15 0 15 C0 13.35 0 11.7 0 10 C1.65 10 3.3 10 5 10 C5 8.35 5 6.7 5 5 C3.35 5 1.7 5 0 5 C0 3.35 0 1.7 0 0 Z " fill="#ECECEB" transform="translate(11,27)"/>
<path d="M0 0 C0.33 0.99 0.66 1.98 1 3 C3.475 3.495 3.475 3.495 6 4 C6.1875 6.875 6.1875 6.875 6 10 C5.01 10.66 4.02 11.32 3 12 C2.67 13.65 2.34 15.3 2 17 C-2.62 17 -7.24 17 -12 17 C-12 15.68 -12 14.36 -12 13 C-13.65 12.67 -15.3 12.34 -17 12 C-17.6875 9.1875 -17.6875 9.1875 -18 6 C-15.96368242 2.64606516 -12.6072546 2.07450137 -9 1 C-6.04335481 -0.4783226 -3.25770263 -0.06032783 0 0 Z M-9 3 C-9 3.66 -9 4.32 -9 5 C-10.98 5 -12.96 5 -15 5 C-15.33 6.65 -15.66 8.3 -16 10 C-13.36 10 -10.72 10 -8 10 C-8.99 10.66 -9.98 11.32 -11 12 C-11 13.32 -11 14.64 -11 16 C-5.555 15.505 -5.555 15.505 0 15 C0.33 13.68 0.66 12.36 1 11 C0.34 10.67 -0.32 10.34 -1 10 C0.65 10 2.3 10 4 10 C4.33 8.68 4.66 7.36 5 6 C3.92570402 5.15504811 2.84010798 4.32445142 1.75 3.5 C1.14671875 3.0359375 0.5434375 2.571875 -0.078125 2.09375 C-3.69227133 0.03691875 -5.70375936 0.80250624 -9 3 Z " fill="#73828D" transform="translate(57,30)"/>
<path d="M0 0 C0.33 0 0.66 0 1 0 C2.05751676 6.87385894 2 12.83937388 2 20 C12.56 20 23.12 20 34 20 C34.495 20.99 34.495 20.99 35 22 C23.45 22 11.9 22 0 22 C0 14.74 0 7.48 0 0 Z " fill="#AE884D" transform="translate(19,61)"/>
<path d="M0 0 C0.99 0.495 0.99 0.495 2 1 C3.093125 0.979375 4.18625 0.95875 5.3125 0.9375 C8.82903119 0.99710222 10.87947411 1.48701775 14 3 C14 5.31 14 7.62 14 10 C12.35 9.67 10.7 9.34 9 9 C9 7.02 9 5.04 9 3 C8.01 3 7.02 3 6 3 C6 5.31 6 7.62 6 10 C4.33388095 10.042721 2.66617115 10.04063832 1 10 C0 9 0 9 -0.09765625 6.93359375 C-0.08605469 6.10988281 -0.07445312 5.28617188 -0.0625 4.4375 C-0.05347656 3.61121094 -0.04445312 2.78492188 -0.03515625 1.93359375 C-0.02355469 1.29550781 -0.01195312 0.65742187 0 0 Z " fill="#C36A2E" transform="translate(45,57)"/>
<path d="M0 0 C0.33 0 0.66 0 1 0 C1 1.98 1 3.96 1 6 C1.99 6 2.98 6 4 6 C4 5.01 4 4.02 4 3 C7.63 3 11.26 3 15 3 C15.33 4.65 15.66 6.3 16 8 C13.03 8 10.06 8 7 8 C6.67 9.65 6.34 11.3 6 13 C4.02 13 2.04 13 0 13 C0 8.71 0 4.42 0 0 Z " fill="#EEEDEC" transform="translate(21,68)"/>
<path d="M0 0 C0 0.33 0 0.66 0 1 C-1.65 1.33 -3.3 1.66 -5 2 C-5 7.94 -5 13.88 -5 20 C-6.65 19.67 -8.3 19.34 -10 19 C-10 13.06 -10 7.12 -10 1 C-6.78548731 -0.60725635 -3.56387464 -0.05748185 0 0 Z " fill="#DE9C5F" transform="translate(71,47)"/>
<path d="M0 0 C0.99 0 1.98 0 3 0 C3 1.65 3 3.3 3 5 C4.98 5 6.96 5 9 5 C9 7.97 9 10.94 9 14 C7.35 14 5.7 14 4 14 C4 12.35 4 10.7 4 9 C2.02 9 0.04 9 -2 9 C-2.25 3.375 -2.25 3.375 0 0 Z " fill="#FCFCFD" transform="translate(91,43)"/>
<path d="M0 0 C7.26 0 14.52 0 22 0 C22 1.65 22 3.3 22 5 C20.989375 4.814375 19.97875 4.62875 18.9375 4.4375 C14.98494042 3.99832671 11.90306727 4.36131626 8 5 C2.42105263 5.21052632 2.42105263 5.21052632 0 4 C0 2.68 0 1.36 0 0 Z " fill="#A88D82" transform="translate(54,71)"/>
<path d="M0 0 C1.98 0 3.96 0 6 0 C6.66 3.3 7.32 6.6 8 10 C7.34 10 6.68 10 6 10 C6.020625 10.804375 6.04125 11.60875 6.0625 12.4375 C6 15 6 15 5 16 C3.33382885 16.04063832 1.66611905 16.042721 0 16 C0 14.02 0 12.04 0 10 C1.65 10 3.3 10 5 10 C5 8.35 5 6.7 5 5 C3.35 5 1.7 5 0 5 C0 3.35 0 1.7 0 0 Z " fill="#E6E6E6" transform="translate(11,74)"/>
<path d="M0 0 C1.98 0 3.96 0 6 0 C6.19672365 1.72814161 6.38196799 3.45759197 6.5625 5.1875 C6.66691406 6.15042969 6.77132813 7.11335938 6.87890625 8.10546875 C6.99758751 10.94233377 6.67765639 13.25423671 6 16 C4.02 16 2.04 16 0 16 C0 14.35 0 12.7 0 11 C1.65 11 3.3 11 5 11 C5 9.35 5 7.7 5 6 C3.35 6 1.7 6 0 6 C0 4.02 0 2.04 0 0 Z " fill="#E6E6E6" transform="translate(11,52)"/>
<path d="M0 0 C0.66 0.99 1.32 1.98 2 3 C2.86625 2.484375 3.7325 1.96875 4.625 1.4375 C8.39403493 -0.16782969 10.10885099 -0.01911045 14 1 C12.875 2.5 12.875 2.5 11 4 C7.8125 4.1875 7.8125 4.1875 5 4 C5 6.31 5 8.62 5 11 C3.33388095 11.042721 1.66617115 11.04063832 0 11 C-1 10 -1 10 -1.125 6.625 C-1 3 -1 3 0 0 Z " fill="#B9622B" transform="translate(27,57)"/>
<path d="M0 0 C7.26 0 14.52 0 22 0 C22 0.33 22 0.66 22 1 C20.35 1 18.7 1 17 1 C16.67 2.65 16.34 4.3 16 6 C14.35 6 12.7 6 11 6 C11 4.35 11 2.7 11 1 C9.02 1 7.04 1 5 1 C5 2.32 5 3.64 5 5 C3.35 5 1.7 5 0 5 C0 3.35 0 1.7 0 0 Z " fill="#F1F1F1" transform="translate(50,84)"/>
<path d="M0 0 C1.67542976 0.28604898 3.34385343 0.61781233 5 1 C5 3.31 5 5.62 5 8 C5.66 7.67 6.32 7.34 7 7 C7.40729228 4.67843403 7.74438677 2.3431213 8 0 C9.65 0.33 11.3 0.66 13 1 C13.05399736 2.45792884 13.09279177 3.91642712 13.125 5.375 C13.14820313 6.18710937 13.17140625 6.99921875 13.1953125 7.8359375 C13 10 13 10 11 12 C10.67 10.35 10.34 8.7 10 7 C9.34 7.66 8.68 8.32 8 9 C5.375 9.125 5.375 9.125 3 9 C3 6.36 3 3.72 3 1 C2.34 1 1.68 1 1 1 C0.67 2.32 0.34 3.64 0 5 C-0.5625 3.0625 -0.5625 3.0625 -1 1 C-0.67 0.67 -0.34 0.34 0 0 Z " fill="#C87D46" transform="translate(47,48)"/>
<path d="M0 0 C1.65 0 3.3 0 5 0 C5 1.65 5 3.3 5 5 C6.98 5 8.96 5 11 5 C11 6.98 11 8.96 11 11 C9.02 11 7.04 11 5 11 C5 9.35 5 7.7 5 6 C4.0409375 6.2784375 4.0409375 6.2784375 3.0625 6.5625 C2.381875 6.706875 1.70125 6.85125 1 7 C0 6 0 6 -0.0625 2.9375 C-0.041875 1.968125 -0.02125 0.99875 0 0 Z " fill="#EEEEEE" transform="translate(89,37)"/>
<path d="M0 0 C1.98 0 3.96 0 6 0 C6 1.65 6 3.3 6 5 C4.35 5 2.7 5 1 5 C1 6.98 1 8.96 1 11 C-0.98 11 -2.96 11 -5 11 C-5 9.02 -5 7.04 -5 5 C-3.35 5 -1.7 5 0 5 C0 3.35 0 1.7 0 0 Z " fill="#F1F1F2" transform="translate(16,0)"/>
<path d="M0 0 C1.98486328 1.17382812 1.98486328 1.17382812 4 3 C4.39404297 5.40429688 4.39404297 5.40429688 4.2421875 8.21875 C4.19320312 9.23324219 4.14421875 10.24773438 4.09375 11.29296875 C4.0215625 12.35128906 3.949375 13.40960938 3.875 14.5 C3.82601562 15.55832031 3.77703125 16.61664063 3.7265625 17.70703125 C3.28698206 25.56952692 3.28698206 25.56952692 1 29 C0.1589522 25.3535194 -0.11764968 22.00049093 -0.09765625 18.26171875 C-0.09443359 17.19501953 -0.09121094 16.12832031 -0.08789062 15.02929688 C-0.07951172 13.92650391 -0.07113281 12.82371094 -0.0625 11.6875 C-0.05798828 10.56537109 -0.05347656 9.44324219 -0.04882812 8.28710938 C-0.03707313 5.5246849 -0.02064077 2.76237002 0 0 Z " fill="#D7C198" transform="translate(80,39)"/>
<path d="M0 0 C0.66 0 1.32 0 2 0 C2 0.99 2 1.98 2 3 C2.99 2.67 3.98 2.34 5 2 C5 4.64 5 7.28 5 10 C8.93075644 9.42547254 8.93075644 9.42547254 12 7 C13 8 13 8 13.0625 10.5625 C13.041875 11.366875 13.02125 12.17125 13 13 C12.505 12.835 12.01 12.67 11.5 12.5 C7.96555911 11.79311182 4.60309299 11.93994845 1 12 C0.67 8.04 0.34 4.08 0 0 Z " fill="#F5C384" transform="translate(45,47)"/>
<path d="M0 0 C0.33 0 0.66 0 1 0 C1.20140476 3.62528568 0.85776765 5.86501708 -1 9 C-0.01 9.66 0.98 10.32 2 11 C1.67 12.32 1.34 13.64 1 15 C-0.32 15.33 -1.64 15.66 -3 16 C-6 12.375 -6 12.375 -6 9 C-5.34 8.67 -4.68 8.34 -4 8 C-3.67 7.01 -3.34 6.02 -3 5 C-2.34 5 -1.68 5 -1 5 C-0.67 3.35 -0.34 1.7 0 0 Z " fill="#C56E35" transform="translate(74,52)"/>
<path d="M0 0 C3.63 0 7.26 0 11 0 C11 1.65 11 3.3 11 5 C7.37 5 3.74 5 0 5 C0 3.35 0 1.7 0 0 Z " fill="#FCFCFD" transform="translate(50,0)"/>
<path d="M0 0 C3.63 0 7.26 0 11 0 C11 1.65 11 3.3 11 5 C9.54207116 5.05399736 8.08357288 5.09279177 6.625 5.125 C5.81289063 5.14820313 5.00078125 5.17140625 4.1640625 5.1953125 C2 5 2 5 0 3 C0 2.01 0 1.02 0 0 Z " fill="#FBFBFC" transform="translate(50,11)"/>
<path d="M0 0 C4.875 0.875 4.875 0.875 6 2 C6.41386733 5.72480595 6.48847952 7.38125927 4.125 10.375 C2 12 2 12 0 12 C0.08378906 11.30132812 0.16757812 10.60265625 0.25390625 9.8828125 C0.35574219 8.97273438 0.45757812 8.06265625 0.5625 7.125 C0.66691406 6.22007813 0.77132812 5.31515625 0.87890625 4.3828125 C1.19674852 1.98346943 1.19674852 1.98346943 0 0 Z " fill="#F9F2E9" transform="translate(33,46)"/>
<path d="M0 0 C3.70579045 0.47574337 6.23981011 2.32068518 9.25 4.4375 C10.14203125 5.05496094 11.0340625 5.67242188 11.953125 6.30859375 C12.96632813 7.14583984 12.96632813 7.14583984 14 8 C14 8.66 14 9.32 14 10 C10.84328058 9.40725356 9.06860286 8.42854419 6.625 6.375 C3.78625811 4.235214 3.31856085 3.98262395 -0.4375 4.1875 C-1.283125 4.455625 -2.12875 4.72375 -3 5 C-1.125 1.125 -1.125 1.125 0 0 Z " fill="#B5935D" transform="translate(49,15)"/>
<path d="M0 0 C3.63 0 7.26 0 11 0 C11.33 1.65 11.66 3.3 12 5 C9.03 5 6.06 5 3 5 C2.67 4.34 2.34 3.68 2 3 C1.01 3.495 1.01 3.495 0 4 C0 2.68 0 1.36 0 0 Z " fill="#B0988F" transform="translate(25,71)"/>
<path d="M0 0 C0.66 0.99 1.32 1.98 2 3 C-0.28765111 4.67243423 -2.57973892 6.33806927 -4.875 8 C-5.52597656 8.47695313 -6.17695312 8.95390625 -6.84765625 9.4453125 C-11.7734375 13 -11.7734375 13 -14 13 C-12.47605205 8.79467528 -9.3847135 6.74995834 -5.875 4.25 C-5.03001953 3.63318359 -5.03001953 3.63318359 -4.16796875 3.00390625 C-2.78398366 1.99523915 -1.39269459 0.99660714 0 0 Z " fill="#E7D1A1" transform="translate(45,18)"/>
<path d="M0 0 C3.63 0 7.26 0 11 0 C11 1.65 11 3.3 11 5 C7.37 4.67 3.74 4.34 0 4 C0 2.68 0 1.36 0 0 Z " fill="#B0988D" transform="translate(38,71)"/>
<path d="M0 0 C2.64 0 5.28 0 8 0 C8 1.65 8 3.3 8 5 C9.65 5 11.3 5 13 5 C13 6.32 13 7.64 13 9 C9.91220974 7.53400783 7.09532795 5.82973607 4.25 3.9375 C3.45078125 3.41027344 2.6515625 2.88304687 1.828125 2.33984375 C1.22484375 1.89769531 0.6215625 1.45554687 0 1 C0 0.67 0 0.34 0 0 Z " fill="#E1DEDB" transform="translate(53,16)"/>
<path d="M0 0 C0.33 0.66 0.66 1.32 1 2 C4.62885324 2.15149298 4.62885324 2.15149298 8 1 C8 2.65 8 4.3 8 6 C4.7 6 1.4 6 -2 6 C-2 4.68 -2 3.36 -2 2 C-1.34 2 -0.68 2 0 2 C0 1.34 0 0.68 0 0 Z " fill="#DDDAD8" transform="translate(69,73)"/>
<path d="M0 0 C9.41002278 -0.18451025 9.41002278 -0.18451025 14 1 C13.401875 1.28875 12.80375 1.5775 12.1875 1.875 C9.80672208 3.04742026 9.80672208 3.04742026 7 5 C3.3125 4.625 3.3125 4.625 0 4 C0 2.68 0 1.36 0 0 Z " fill="#AA9186" transform="translate(54,71)"/>
<path d="M0 0 C0.66 0.66 1.32 1.32 2 2 C1.67 3.32 1.34 4.64 1 6 C-2.63 6 -6.26 6 -10 6 C-10 5.34 -10 4.68 -10 4 C-8.02 4 -6.04 4 -4 4 C-4 3.01 -4 2.02 -4 1 C-2.125 0.375 -2.125 0.375 0 0 Z " fill="#EEEEEE" transform="translate(43,75)"/>
<path d="M0 0 C0.99 0 1.98 0 3 0 C2.85831863 1.43791516 2.71148957 2.8753237 2.5625 4.3125 C2.48128906 5.11300781 2.40007813 5.91351563 2.31640625 6.73828125 C2 9 2 9 1 12 C0.01 12.33 -0.98 12.66 -2 13 C-2.33 11.02 -2.66 9.04 -3 7 C-2.34 6.67 -1.68 6.34 -1 6 C-0.34227572 2.97065509 -0.34227572 2.97065509 0 0 Z " fill="#EDA65B" transform="translate(30,48)"/>
<path d="M0 0 C0 0.99 0 1.98 0 3 C-1.32 2.67 -2.64 2.34 -4 2 C-4 4.31 -4 6.62 -4 9 C-4.99 9.33 -5.98 9.66 -7 10 C-7.12375 8.329375 -7.12375 8.329375 -7.25 6.625 C-7.62125 4.830625 -7.62125 4.830625 -8 3 C-9.32 2.34 -10.64 1.68 -12 1 C-6.06 0.505 -6.06 0.505 0 0 Z " fill="#F9F2E5" transform="translate(59,46)"/>
<path d="M0 0 C0.99 0 1.98 0 3 0 C3.75 2.25 3.75 2.25 4 5 C2.375 7.3125 2.375 7.3125 0 9 C-2.75 9.25 -2.75 9.25 -5 9 C-4.67 8.34 -4.34 7.68 -4 7 C-3.34 7 -2.68 7 -2 7 C-1.34 4.69 -0.68 2.38 0 0 Z " fill="#E6A360" transform="translate(41,50)"/>
<path d="M0 0 C1.98 0 3.96 0 6 0 C6 1.98 6 3.96 6 6 C4.02 6 2.04 6 0 6 C0 4.02 0 2.04 0 0 Z " fill="#E7E7E7" transform="translate(33,84)"/>
<path d="M0 0 C1.98 0.495 1.98 0.495 4 1 C4 3.31 4 5.62 4 8 C2.35 7.67 0.7 7.34 -1 7 C-0.67 4.69 -0.34 2.38 0 0 Z " fill="#CB6A29" transform="translate(62,59)"/>
<path d="M0 0 C1.65 0.33 3.3 0.66 5 1 C5.1875 3.875 5.1875 3.875 5 7 C4.01 7.66 3.02 8.32 2 9 C1.27034634 11.56282742 1.27034634 11.56282742 1 14 C0.34 13.67 -0.32 13.34 -1 13 C-0.67 11.35 -0.34 9.7 0 8 C-0.99 7.67 -1.98 7.34 -3 7 C-0.92446352 6.4465236 0.84365964 6 3 6 C2.42655063 3.13275314 2.1385485 2.1385485 0 0 Z " fill="#687884" transform="translate(58,33)"/>
<path d="M0 0 C0.66 0 1.32 0 2 0 C2.33 1.65 2.66 3.3 3 5 C2.01 5 1.02 5 0 5 C0 5.99 0 6.98 0 8 C-1.98 8 -3.96 8 -6 8 C-5.67 7.01 -5.34 6.02 -5 5 C-3.68 5 -2.36 5 -1 5 C-0.67 3.35 -0.34 1.7 0 0 Z " fill="#CEC3BF" transform="translate(50,71)"/>
<path d="M0 0 C0.33 0.99 0.66 1.98 1 3 C-1.97 5.31 -4.94 7.62 -8 10 C-8.99 9.34 -9.98 8.68 -11 8 C-7.37 5.36 -3.74 2.72 0 0 Z " fill="#F6E5BB" transform="translate(30,29)"/>
<path d="M0 0 C1.98 0 3.96 0 6 0 C6 1.65 6 3.3 6 5 C4.02 5.33 2.04 5.66 0 6 C0 4.02 0 2.04 0 0 Z " fill="#E3E3E3" transform="translate(83,74)"/>
<path d="M0 0 C0.66 0 1.32 0 2 0 C1.79375 0.721875 1.5875 1.44375 1.375 2.1875 C0.94047789 5.44641585 1.58319331 7.08304504 3 10 C2.01 10.33 1.02 10.66 0 11 C-0.33 12.65 -0.66 14.3 -1 16 C-1.33 16 -1.66 16 -2 16 C-2.11139091 10.31906353 -1.41620179 5.46249264 0 0 Z " fill="#EAC29B" transform="translate(68,51)"/>
<path d="M0 0 C1.98 0 3.96 0 6 0 C6 1.65 6 3.3 6 5 C4.02 5 2.04 5 0 5 C0 3.35 0 1.7 0 0 Z " fill="#E3E3E3" transform="translate(33,95)"/>
<path d="M0 0 C1.98 0 3.96 0 6 0 C6 1.65 6 3.3 6 5 C4.02 5 2.04 5 0 5 C0 3.35 0 1.7 0 0 Z " fill="#FAFAFB" transform="translate(33,90)"/>
<path d="M0 0 C1.98 0 3.96 0 6 0 C6 1.65 6 3.3 6 5 C4.02 5 2.04 5 0 5 C0 3.35 0 1.7 0 0 Z " fill="#E3E3E3" transform="translate(83,58)"/>
<path d="M0 0 C1.98 0 3.96 0 6 0 C6 1.65 6 3.3 6 5 C4.02 5 2.04 5 0 5 C0 3.35 0 1.7 0 0 Z " fill="#E3E3E3" transform="translate(83,32)"/>
<path d="M0 0 C1.98 0 3.96 0 6 0 C6 1.65 6 3.3 6 5 C4.02 5 2.04 5 0 5 C0 3.35 0 1.7 0 0 Z " fill="#E3E4E4" transform="translate(83,21)"/>
<path d="M0 0 C1.98 0 3.96 0 6 0 C6 1.65 6 3.3 6 5 C4.02 5 2.04 5 0 5 C0 3.35 0 1.7 0 0 Z " fill="#FAFAFB" transform="translate(83,16)"/>
<path d="M0 0 C1.98 0 3.96 0 6 0 C6 1.65 6 3.3 6 5 C4.02 5 2.04 5 0 5 C0 3.35 0 1.7 0 0 Z " fill="#FAFAFA" transform="translate(22,16)"/>
<path d="M0 0 C1.98 0 3.96 0 6 0 C6 1.65 6 3.3 6 5 C4.02 5 2.04 5 0 5 C0 3.35 0 1.7 0 0 Z " fill="#E3E3E3" transform="translate(83,11)"/>
<path d="M0 0 C1.98 0 3.96 0 6 0 C6 1.65 6 3.3 6 5 C4.02 5 2.04 5 0 5 C0 3.35 0 1.7 0 0 Z " fill="#E3E3E3" transform="translate(22,11)"/>
<path d="M0 0 C1.65 0 3.3 0 5 0 C5 1.98 5 3.96 5 6 C3.35 6 1.7 6 0 6 C0 4.02 0 2.04 0 0 Z " fill="#FAFAFB" transform="translate(95,5)"/>
<path d="M0 0 C1.65 0 3.3 0 5 0 C5 1.98 5 3.96 5 6 C3.35 6 1.7 6 0 6 C0 4.02 0 2.04 0 0 Z " fill="#E3E3E3" transform="translate(67,5)"/>
<path d="M0 0 C1.98 0 3.96 0 6 0 C6 1.65 6 3.3 6 5 C4.02 5 2.04 5 0 5 C0 3.35 0 1.7 0 0 Z " fill="#F9F9FA" transform="translate(33,5)"/>
<path d="M0 0 C1.65 0 3.3 0 5 0 C5 1.98 5 3.96 5 6 C3.35 6 1.7 6 0 6 C0 4.02 0 2.04 0 0 Z " fill="#E3E3E3" transform="translate(17,5)"/>
<path d="M0 0 C1.98 0 3.96 0 6 0 C6 1.65 6 3.3 6 5 C4.02 5 2.04 5 0 5 C0 3.35 0 1.7 0 0 Z " fill="#E3E3E3" transform="translate(83,0)"/>
<path d="M0 0 C1.98 0 3.96 0 6 0 C6 1.65 6 3.3 6 5 C4.02 5 2.04 5 0 5 C0 3.35 0 1.7 0 0 Z " fill="#E2E2E2" transform="translate(22,0)"/>
<path d="M0 0 C1.65 0 3.3 0 5 0 C5 1.65 5 3.3 5 5 C3.02 5 1.04 5 -1 5 C-0.67 3.35 -0.34 1.7 0 0 Z " fill="#E2E3E3" transform="translate(95,95)"/>
<path d="M0 0 C0.66 0 1.32 0 2 0 C2 0.99 2 1.98 2 3 C2.99 2.67 3.98 2.34 5 2 C5.25 4.3125 5.25 4.3125 5 7 C3.68 7.99 2.36 8.98 1 10 C0.67 6.7 0.34 3.4 0 0 Z " fill="#E2AB74" transform="translate(45,47)"/>
<path d="M0 0 C2.97 0.495 2.97 0.495 6 1 C5.1875 4.4375 5.1875 4.4375 4 8 C3.01 8.33 2.02 8.66 1 9 C0.34 8.34 -0.32 7.68 -1 7 C-0.01 6.67 0.98 6.34 2 6 C2 4.35 2 2.7 2 1 C1.34 0.67 0.68 0.34 0 0 Z " fill="#E28A40" transform="translate(69,49)"/>
<path d="M0 0 C1.98 0 3.96 0 6 0 C5.67 1.65 5.34 3.3 5 5 C3.35 5 1.7 5 0 5 C0 3.35 0 1.7 0 0 Z " fill="#FBFCFC" transform="translate(50,84)"/>
<path d="M0 0 C0.66 0.99 1.32 1.98 2 3 C2.66 3 3.32 3 4 3 C3.67 5.31 3.34 7.62 3 10 C2.01 9.67 1.02 9.34 0 9 C-1.125 3.375 -1.125 3.375 0 0 Z " fill="#D97632" transform="translate(27,57)"/>
<path d="M0 0 C1.65 0 3.3 0 5 0 C5 1.65 5 3.3 5 5 C3.35 5.33 1.7 5.66 0 6 C0 4.02 0 2.04 0 0 Z " fill="#E1E1E0" transform="translate(89,37)"/>
<path d="M0 0 C1.65 0 3.3 0 5 0 C5.33 1.32 5.66 2.64 6 4 C4.125 5.0625 4.125 5.0625 2 6 C1.34 5.67 0.68 5.34 0 5 C0 3.35 0 1.7 0 0 Z " fill="#E3E3E2" transform="translate(45,11)"/>
<path d="M0 0 C1.65 0 3.3 0 5 0 C5 1.65 5 3.3 5 5 C3.35 5 1.7 5 0 5 C0 3.35 0 1.7 0 0 Z " fill="#E1E0E1" transform="translate(78,95)"/>
<path d="M0 0 C1.65 0 3.3 0 5 0 C5 1.65 5 3.3 5 5 C3.35 5 1.7 5 0 5 C0 3.35 0 1.7 0 0 Z " fill="#FCFCFC" transform="translate(72,95)"/>
<path d="M0 0 C1.65 0 3.3 0 5 0 C5 1.65 5 3.3 5 5 C3.35 5 1.7 5 0 5 C0 3.35 0 1.7 0 0 Z " fill="#E1E1E1" transform="translate(67,95)"/>
<path d="M0 0 C1.65 0 3.3 0 5 0 C5 1.65 5 3.3 5 5 C3.35 5 1.7 5 0 5 C0 3.35 0 1.7 0 0 Z " fill="#FCFCFD" transform="translate(61,95)"/>
<path d="M0 0 C1.65 0 3.3 0 5 0 C5 1.65 5 3.3 5 5 C3.35 5 1.7 5 0 5 C0 3.35 0 1.7 0 0 Z " fill="#E2E2E2" transform="translate(56,95)"/>
<path d="M0 0 C1.65 0 3.3 0 5 0 C5 1.65 5 3.3 5 5 C3.35 5 1.7 5 0 5 C0 3.35 0 1.7 0 0 Z " fill="#FCFCFD" transform="translate(50,95)"/>
<path d="M0 0 C1.65 0 3.3 0 5 0 C5 1.65 5 3.3 5 5 C3.35 5 1.7 5 0 5 C0 3.35 0 1.7 0 0 Z " fill="#E2E2E2" transform="translate(45,95)"/>
<path d="M0 0 C1.65 0 3.3 0 5 0 C5 1.65 5 3.3 5 5 C3.35 5 1.7 5 0 5 C0 3.35 0 1.7 0 0 Z " fill="#FCFCFD" transform="translate(39,95)"/>
<path d="M0 0 C1.65 0 3.3 0 5 0 C5 1.65 5 3.3 5 5 C3.35 5 1.7 5 0 5 C0 3.35 0 1.7 0 0 Z " fill="#FCFCFD" transform="translate(28,95)"/>
<path d="M0 0 C1.65 0 3.3 0 5 0 C5 1.65 5 3.3 5 5 C3.35 5 1.7 5 0 5 C0 3.35 0 1.7 0 0 Z " fill="#E2E2E2" transform="translate(22,95)"/>
<path d="M0 0 C1.65 0 3.3 0 5 0 C5 1.65 5 3.3 5 5 C3.35 5 1.7 5 0 5 C0 3.35 0 1.7 0 0 Z " fill="#FCFCFD" transform="translate(17,95)"/>
<path d="M0 0 C1.65 0 3.3 0 5 0 C5 1.65 5 3.3 5 5 C3.35 5 1.7 5 0 5 C0 3.35 0 1.7 0 0 Z " fill="#E2E2E2" transform="translate(11,95)"/>
<path d="M0 0 C1.65 0 3.3 0 5 0 C5 1.65 5 3.3 5 5 C3.35 5 1.7 5 0 5 C0 3.35 0 1.7 0 0 Z " fill="#FCFCFD" transform="translate(6,95)"/>
<path d="M0 0 C1.65 0 3.3 0 5 0 C5 1.65 5 3.3 5 5 C3.35 5 1.7 5 0 5 C0 3.35 0 1.7 0 0 Z " fill="#E0E1E1" transform="translate(0,95)"/>
<path d="M0 0 C1.65 0 3.3 0 5 0 C5 1.65 5 3.3 5 5 C3.35 5 1.7 5 0 5 C0 3.35 0 1.7 0 0 Z " fill="#E2E2E2" transform="translate(89,90)"/>
<path d="M0 0 C1.65 0 3.3 0 5 0 C5 1.65 5 3.3 5 5 C3.35 5 1.7 5 0 5 C0 3.35 0 1.7 0 0 Z " fill="#E1E2E2" transform="translate(72,90)"/>
<path d="M0 0 C1.65 0 3.3 0 5 0 C5 1.65 5 3.3 5 5 C3.35 5 1.7 5 0 5 C0 3.35 0 1.7 0 0 Z " fill="#FCFCFD" transform="translate(67,90)"/>
<path d="M0 0 C1.65 0 3.3 0 5 0 C5 1.65 5 3.3 5 5 C3.35 5 1.7 5 0 5 C0 3.35 0 1.7 0 0 Z " fill="#E1E1E1" transform="translate(61,90)"/>
<path d="M0 0 C1.65 0 3.3 0 5 0 C5 1.65 5 3.3 5 5 C3.35 5 1.7 5 0 5 C0 3.35 0 1.7 0 0 Z " fill="#FCFCFD" transform="translate(56,90)"/>
<path d="M0 0 C1.65 0 3.3 0 5 0 C5 1.65 5 3.3 5 5 C3.35 5 1.7 5 0 5 C0 3.35 0 1.7 0 0 Z " fill="#E2E2E2" transform="translate(50,90)"/>
<path d="M0 0 C1.65 0 3.3 0 5 0 C5 1.65 5 3.3 5 5 C3.35 5 1.7 5 0 5 C0 3.35 0 1.7 0 0 Z " fill="#FCFCFC" transform="translate(45,90)"/>
<path d="M0 0 C1.65 0 3.3 0 5 0 C5 1.65 5 3.3 5 5 C3.35 5 1.7 5 0 5 C0 3.35 0 1.7 0 0 Z " fill="#E1E1E1" transform="translate(39,90)"/>
<path d="M0 0 C1.65 0 3.3 0 5 0 C5 1.65 5 3.3 5 5 C3.35 5 1.7 5 0 5 C0 3.35 0 1.7 0 0 Z " fill="#E1E1E1" transform="translate(28,90)"/>
<path d="M0 0 C1.65 0 3.3 0 5 0 C5 1.65 5 3.3 5 5 C3.35 5 1.7 5 0 5 C0 3.35 0 1.7 0 0 Z " fill="#FBFBFC" transform="translate(22,90)"/>
<path d="M0 0 C1.65 0 3.3 0 5 0 C5 1.65 5 3.3 5 5 C3.35 5 1.7 5 0 5 C0 3.35 0 1.7 0 0 Z " fill="#E1E1E1" transform="translate(17,90)"/>
<path d="M0 0 C1.65 0 3.3 0 5 0 C5 1.65 5 3.3 5 5 C3.35 5 1.7 5 0 5 C0 3.35 0 1.7 0 0 Z " fill="#FCFCFC" transform="translate(11,90)"/>
<path d="M0 0 C1.65 0 3.3 0 5 0 C5 1.65 5 3.3 5 5 C3.35 5 1.7 5 0 5 C0 3.35 0 1.7 0 0 Z " fill="#E1E1E1" transform="translate(6,90)"/>
<path d="M0 0 C1.65 0 3.3 0 5 0 C5 1.65 5 3.3 5 5 C3.35 5 1.7 5 0 5 C0 3.35 0 1.7 0 0 Z " fill="#FCFCFD" transform="translate(0,90)"/>
<path d="M0 0 C1.65 0 3.3 0 5 0 C5 1.65 5 3.3 5 5 C3.35 5 1.7 5 0 5 C0 3.35 0 1.7 0 0 Z " fill="#FBFBFC" transform="translate(6,84)"/>
<path d="M0 0 C1.65 0 3.3 0 5 0 C5 1.65 5 3.3 5 5 C3.35 5 1.7 5 0 5 C0 3.35 0 1.7 0 0 Z " fill="#FCFCFD" transform="translate(39,84)"/>
<path d="M0 0 C1.65 0 3.3 0 5 0 C5 1.65 5 3.3 5 5 C3.35 5 1.7 5 0 5 C0 3.35 0 1.7 0 0 Z " fill="#FCFCFD" transform="translate(28,84)"/>
<path d="M0 0 C1.65 0 3.3 0 5 0 C5 1.65 5 3.3 5 5 C3.35 5 1.7 5 0 5 C0 3.35 0 1.7 0 0 Z " fill="#FCFCFC" transform="translate(17,84)"/>
<path d="M0 0 C1.65 0 3.3 0 5 0 C5 1.65 5 3.3 5 5 C3.35 5 1.7 5 0 5 C0 3.35 0 1.7 0 0 Z " fill="#FCFCFD" transform="translate(95,79)"/>
<path d="M0 0 C1.65 0 3.3 0 5 0 C5 1.65 5 3.3 5 5 C3.35 5 1.7 5 0 5 C0 3.35 0 1.7 0 0 Z " fill="#E0E1E1" transform="translate(89,79)"/>
<path d="M0 0 C1.65 0 3.3 0 5 0 C5 1.65 5 3.3 5 5 C3.35 5 1.7 5 0 5 C0 3.35 0 1.7 0 0 Z " fill="#FCFCFC" transform="translate(11,79)"/>
<path d="M0 0 C1.65 0 3.3 0 5 0 C5 1.65 5 3.3 5 5 C3.35 5 1.7 5 0 5 C0 3.35 0 1.7 0 0 Z " fill="#E1E1E1" transform="translate(6,79)"/>
<path d="M0 0 C1.65 0 3.3 0 5 0 C5 1.65 5 3.3 5 5 C3.35 5 1.7 5 0 5 C0 3.35 0 1.7 0 0 Z " fill="#FCFCFD" transform="translate(0,79)"/>
<path d="M0 0 C1.65 0 3.3 0 5 0 C5 1.65 5 3.3 5 5 C3.35 5 1.7 5 0 5 C0 3.35 0 1.7 0 0 Z " fill="#E0E0E1" transform="translate(95,74)"/>
<path d="M0 0 C1.65 0 3.3 0 5 0 C5 1.65 5 3.3 5 5 C3.35 5 1.7 5 0 5 C0 3.35 0 1.7 0 0 Z " fill="#FCFCFD" transform="translate(6,74)"/>
<path d="M0 0 C1.65 0 3.3 0 5 0 C5 1.65 5 3.3 5 5 C3.35 5 1.7 5 0 5 C0 3.35 0 1.7 0 0 Z " fill="#E1E1E1" transform="translate(0,74)"/>
<path d="M0 0 C1.65 0 3.3 0 5 0 C5 1.65 5 3.3 5 5 C3.35 5 1.7 5 0 5 C0 3.35 0 1.7 0 0 Z " fill="#E0E0E1" transform="translate(89,63)"/>
<path d="M0 0 C1.65 0 3.3 0 5 0 C5 1.65 5 3.3 5 5 C3.35 5 1.7 5 0 5 C0 3.35 0 1.7 0 0 Z " fill="#FCFCFD" transform="translate(6,63)"/>
<path d="M0 0 C1.65 0 3.3 0 5 0 C5 1.65 5 3.3 5 5 C3.35 5 1.7 5 0 5 C0 3.35 0 1.7 0 0 Z " fill="#E1E1E1" transform="translate(0,63)"/>
<path d="M0 0 C1.65 0 3.3 0 5 0 C5 1.65 5 3.3 5 5 C3.35 5 1.7 5 0 5 C0 3.35 0 1.7 0 0 Z " fill="#E0E0E0" transform="translate(95,58)"/>
<path d="M0 0 C1.65 0 3.3 0 5 0 C5 1.65 5 3.3 5 5 C3.35 5 1.7 5 0 5 C0 3.35 0 1.7 0 0 Z " fill="#FDFDFD" transform="translate(89,58)"/>
<path d="M0 0 C1.65 0 3.3 0 5 0 C5 1.65 5 3.3 5 5 C3.35 5 1.7 5 0 5 C0 3.35 0 1.7 0 0 Z " fill="#FCFCFD" transform="translate(11,58)"/>
<path d="M0 0 C1.65 0 3.3 0 5 0 C5 1.65 5 3.3 5 5 C3.35 5 1.7 5 0 5 C0 3.35 0 1.7 0 0 Z " fill="#E1E1E1" transform="translate(6,58)"/>
<path d="M0 0 C1.65 0 3.3 0 5 0 C5 1.65 5 3.3 5 5 C3.35 5 1.7 5 0 5 C0 3.35 0 1.7 0 0 Z " fill="#FCFCFD" transform="translate(0,58)"/>
<path d="M0 0 C1.65 0 3.3 0 5 0 C5 1.65 5 3.3 5 5 C3.35 5 1.7 5 0 5 C0 3.35 0 1.7 0 0 Z " fill="#FCFCFC" transform="translate(6,52)"/>
<path d="M0 0 C1.65 0 3.3 0 5 0 C5 1.65 5 3.3 5 5 C3.35 5 1.7 5 0 5 C0 3.35 0 1.7 0 0 Z " fill="#FCFCFD" transform="translate(95,37)"/>
<path d="M0 0 C1.65 0 3.3 0 5 0 C5 1.65 5 3.3 5 5 C3.35 5 1.7 5 0 5 C0 3.35 0 1.7 0 0 Z " fill="#E1E1E1" transform="translate(6,37)"/>
<path d="M0 0 C1.65 0 3.3 0 5 0 C5 1.65 5 3.3 5 5 C3.35 5 1.7 5 0 5 C0 3.35 0 1.7 0 0 Z " fill="#FCFCFD" transform="translate(0,37)"/>
<path d="M0 0 C1.65 0 3.3 0 5 0 C5 1.65 5 3.3 5 5 C3.35 5 1.7 5 0 5 C0 3.35 0 1.7 0 0 Z " fill="#E1E1E1" transform="translate(95,32)"/>
<path d="M0 0 C1.65 0 3.3 0 5 0 C5 1.65 5 3.3 5 5 C3.35 5 1.7 5 0 5 C0 3.35 0 1.7 0 0 Z " fill="#FCFCFD" transform="translate(89,32)"/>
<path d="M0 0 C1.65 0 3.3 0 5 0 C5 1.65 5 3.3 5 5 C3.35 5 1.7 5 0 5 C0 3.35 0 1.7 0 0 Z " fill="#E1E1E1" transform="translate(11,32)"/>
<path d="M0 0 C1.65 0 3.3 0 5 0 C5 1.65 5 3.3 5 5 C3.35 5 1.7 5 0 5 C0 3.35 0 1.7 0 0 Z " fill="#FCFCFC" transform="translate(6,32)"/>
<path d="M0 0 C1.65 0 3.3 0 5 0 C5 1.65 5 3.3 5 5 C3.35 5 1.7 5 0 5 C0 3.35 0 1.7 0 0 Z " fill="#E1E1E1" transform="translate(0,32)"/>
<path d="M0 0 C1.65 0 3.3 0 5 0 C5 1.65 5 3.3 5 5 C3.35 5 1.7 5 0 5 C0 3.35 0 1.7 0 0 Z " fill="#FCFCFC" transform="translate(89,21)"/>
<path d="M0 0 C1.65 0 3.3 0 5 0 C5 1.65 5 3.3 5 5 C3.35 5 1.7 5 0 5 C0 3.35 0 1.7 0 0 Z " fill="#FCFCFC" transform="translate(78,21)"/>
<path d="M0 0 C1.65 0 3.3 0 5 0 C5 1.65 5 3.3 5 5 C3.35 5 1.7 5 0 5 C0 3.35 0 1.7 0 0 Z " fill="#FCFCFC" transform="translate(67,21)"/>
<path d="M0 0 C1.65 0 3.3 0 5 0 C5 1.65 5 3.3 5 5 C3.35 5 1.7 5 0 5 C0 3.35 0 1.7 0 0 Z " fill="#FCFCFC" transform="translate(17,21)"/>
<path d="M0 0 C1.65 0 3.3 0 5 0 C5 1.65 5 3.3 5 5 C3.35 5 1.7 5 0 5 C0 3.35 0 1.7 0 0 Z " fill="#E1E1E1" transform="translate(95,21)"/>
<path d="M0 0 C1.65 0 3.3 0 5 0 C5 1.65 5 3.3 5 5 C3.35 5 1.7 5 0 5 C0 3.35 0 1.7 0 0 Z " fill="#FCFCFC" transform="translate(28,21)"/>
<path d="M0 0 C1.65 0 3.3 0 5 0 C5 1.65 5 3.3 5 5 C3.35 5 1.7 5 0 5 C0 3.35 0 1.7 0 0 Z " fill="#E2E2E2" transform="translate(11,21)"/>
<path d="M0 0 C1.65 0 3.3 0 5 0 C5 1.65 5 3.3 5 5 C3.35 5 1.7 5 0 5 C0 3.35 0 1.7 0 0 Z " fill="#FCFCFC" transform="translate(6,21)"/>
<path d="M0 0 C1.65 0 3.3 0 5 0 C5 1.65 5 3.3 5 5 C3.35 5 1.7 5 0 5 C0 3.35 0 1.7 0 0 Z " fill="#E1E1E1" transform="translate(0,21)"/>
<path d="M0 0 C1.65 0 3.3 0 5 0 C5 1.65 5 3.3 5 5 C3.35 5 1.7 5 0 5 C0 3.35 0 1.7 0 0 Z " fill="#FCFCFD" transform="translate(95,16)"/>
<path d="M0 0 C1.65 0 3.3 0 5 0 C5 1.65 5 3.3 5 5 C3.35 5 1.7 5 0 5 C0 3.35 0 1.7 0 0 Z " fill="#E1E1E1" transform="translate(89,16)"/>
<path d="M0 0 C1.65 0 3.3 0 5 0 C5 1.65 5 3.3 5 5 C3.35 5 1.7 5 0 5 C0 3.35 0 1.7 0 0 Z " fill="#E0E0E1" transform="translate(78,16)"/>
<path d="M0 0 C1.65 0 3.3 0 5 0 C5 1.65 5 3.3 5 5 C3.35 5 1.7 5 0 5 C0 3.35 0 1.7 0 0 Z " fill="#FBFBFC" transform="translate(72,16)"/>
<path d="M0 0 C1.65 0 3.3 0 5 0 C5 1.65 5 3.3 5 5 C3.35 5 1.7 5 0 5 C0 3.35 0 1.7 0 0 Z " fill="#E1E1E1" transform="translate(67,16)"/>
<path d="M0 0 C1.65 0 3.3 0 5 0 C5 1.65 5 3.3 5 5 C3.35 5 1.7 5 0 5 C0 3.35 0 1.7 0 0 Z " fill="#FCFCFC" transform="translate(61,16)"/>
<path d="M0 0 C1.65 0 3.3 0 5 0 C5 1.65 5 3.3 5 5 C3.35 5 1.7 5 0 5 C0 3.35 0 1.7 0 0 Z " fill="#E1E1E1" transform="translate(28,16)"/>
<path d="M0 0 C1.65 0 3.3 0 5 0 C5 1.65 5 3.3 5 5 C3.35 5 1.7 5 0 5 C0 3.35 0 1.7 0 0 Z " fill="#E1E1E1" transform="translate(17,16)"/>
<path d="M0 0 C1.65 0 3.3 0 5 0 C5 1.65 5 3.3 5 5 C3.35 5 1.7 5 0 5 C0 3.35 0 1.7 0 0 Z " fill="#FCFCFD" transform="translate(11,16)"/>
<path d="M0 0 C1.65 0 3.3 0 5 0 C5 1.65 5 3.3 5 5 C3.35 5 1.7 5 0 5 C0 3.35 0 1.7 0 0 Z " fill="#E1E1E1" transform="translate(6,16)"/>
<path d="M0 0 C1.65 0 3.3 0 5 0 C5 1.65 5 3.3 5 5 C3.35 5 1.7 5 0 5 C0 3.35 0 1.7 0 0 Z " fill="#FCFCFD" transform="translate(0,16)"/>
<path d="M0 0 C1.65 0 3.3 0 5 0 C5 1.65 5 3.3 5 5 C3.35 5 1.7 5 0 5 C0 3.35 0 1.7 0 0 Z " fill="#E1E1E1" transform="translate(95,11)"/>
<path d="M0 0 C1.65 0 3.3 0 5 0 C5 1.65 5 3.3 5 5 C3.35 5 1.7 5 0 5 C0 3.35 0 1.7 0 0 Z " fill="#FCFCFD" transform="translate(89,11)"/>
<path d="M0 0 C1.65 0 3.3 0 5 0 C5 1.65 5 3.3 5 5 C3.35 5 1.7 5 0 5 C0 3.35 0 1.7 0 0 Z " fill="#FCFCFD" transform="translate(78,11)"/>
<path d="M0 0 C1.65 0 3.3 0 5 0 C5 1.65 5 3.3 5 5 C3.35 5 1.7 5 0 5 C0 3.35 0 1.7 0 0 Z " fill="#E2E2E2" transform="translate(72,11)"/>
<path d="M0 0 C1.65 0 3.3 0 5 0 C5 1.65 5 3.3 5 5 C3.35 5 1.7 5 0 5 C0 3.35 0 1.7 0 0 Z " fill="#FCFCFD" transform="translate(67,11)"/>
<path d="M0 0 C1.65 0 3.3 0 5 0 C5 1.65 5 3.3 5 5 C3.35 5 1.7 5 0 5 C0 3.35 0 1.7 0 0 Z " fill="#E1E1E1" transform="translate(61,11)"/>
<path d="M0 0 C1.65 0 3.3 0 5 0 C5 1.65 5 3.3 5 5 C3.35 5 1.7 5 0 5 C0 3.35 0 1.7 0 0 Z " fill="#FCFCFC" transform="translate(39,11)"/>
<path d="M0 0 C1.65 0 3.3 0 5 0 C5 1.65 5 3.3 5 5 C3.35 5 1.7 5 0 5 C0 3.35 0 1.7 0 0 Z " fill="#E2E2E2" transform="translate(34,11)"/>
<path d="M0 0 C1.65 0 3.3 0 5 0 C5 1.65 5 3.3 5 5 C3.35 5 1.7 5 0 5 C0 3.35 0 1.7 0 0 Z " fill="#FCFCFD" transform="translate(28,11)"/>
<path d="M0 0 C1.65 0 3.3 0 5 0 C5 1.65 5 3.3 5 5 C3.35 5 1.7 5 0 5 C0 3.35 0 1.7 0 0 Z " fill="#FCFCFD" transform="translate(17,11)"/>
<path d="M0 0 C1.65 0 3.3 0 5 0 C5 1.65 5 3.3 5 5 C3.35 5 1.7 5 0 5 C0 3.35 0 1.7 0 0 Z " fill="#E1E1E1" transform="translate(11,11)"/>
<path d="M0 0 C1.65 0 3.3 0 5 0 C5 1.65 5 3.3 5 5 C3.35 5 1.7 5 0 5 C0 3.35 0 1.7 0 0 Z " fill="#FCFCFD" transform="translate(6,11)"/>
<path d="M0 0 C1.65 0 3.3 0 5 0 C5 1.65 5 3.3 5 5 C3.35 5 1.7 5 0 5 C0 3.35 0 1.7 0 0 Z " fill="#E1E1E1" transform="translate(0,11)"/>
<path d="M0 0 C1.65 0 3.3 0 5 0 C5 1.65 5 3.3 5 5 C3.35 5 1.7 5 0 5 C0 3.35 0 1.7 0 0 Z " fill="#E2E2E2" transform="translate(78,5)"/>
<path d="M0 0 C1.65 0 3.3 0 5 0 C5 1.65 5 3.3 5 5 C3.35 5 1.7 5 0 5 C0 3.35 0 1.7 0 0 Z " fill="#E1E2E2" transform="translate(39,5)"/>
<path d="M0 0 C1.65 0 3.3 0 5 0 C5 1.65 5 3.3 5 5 C3.35 5 1.7 5 0 5 C0 3.35 0 1.7 0 0 Z " fill="#E2E2E2" transform="translate(28,5)"/>
<path d="M0 0 C1.65 0 3.3 0 5 0 C5 1.65 5 3.3 5 5 C3.35 5 1.7 5 0 5 C0 3.35 0 1.7 0 0 Z " fill="#E2E2E2" transform="translate(6,5)"/>
<path d="M0 0 C1.65 0 3.3 0 5 0 C5 1.65 5 3.3 5 5 C3.35 5 1.7 5 0 5 C0 3.35 0 1.7 0 0 Z " fill="#E0E0E0" transform="translate(95,0)"/>
<path d="M0 0 C1.65 0 3.3 0 5 0 C5 1.65 5 3.3 5 5 C3.35 5 1.7 5 0 5 C0 3.35 0 1.7 0 0 Z " fill="#FCFDFD" transform="translate(89,0)"/>
<path d="M0 0 C1.65 0 3.3 0 5 0 C5 1.65 5 3.3 5 5 C3.35 5 1.7 5 0 5 C0 3.35 0 1.7 0 0 Z " fill="#FCFDFD" transform="translate(78,0)"/>
<path d="M0 0 C1.65 0 3.3 0 5 0 C5 1.65 5 3.3 5 5 C3.35 5 1.7 5 0 5 C0 3.35 0 1.7 0 0 Z " fill="#E1E1E1" transform="translate(72,0)"/>
<path d="M0 0 C1.65 0 3.3 0 5 0 C5 1.65 5 3.3 5 5 C3.35 5 1.7 5 0 5 C0 3.35 0 1.7 0 0 Z " fill="#FCFCFD" transform="translate(67,0)"/>
<path d="M0 0 C1.65 0 3.3 0 5 0 C5 1.65 5 3.3 5 5 C3.35 5 1.7 5 0 5 C0 3.35 0 1.7 0 0 Z " fill="#E1E1E1" transform="translate(61,0)"/>
<path d="M0 0 C1.65 0 3.3 0 5 0 C5 1.65 5 3.3 5 5 C3.35 5 1.7 5 0 5 C0 3.35 0 1.7 0 0 Z " fill="#E1E1E1" transform="translate(45,0)"/>
<path d="M0 0 C1.65 0 3.3 0 5 0 C5 1.65 5 3.3 5 5 C3.35 5 1.7 5 0 5 C0 3.35 0 1.7 0 0 Z " fill="#FCFDFD" transform="translate(39,0)"/>
<path d="M0 0 C1.65 0 3.3 0 5 0 C5 1.65 5 3.3 5 5 C3.35 5 1.7 5 0 5 C0 3.35 0 1.7 0 0 Z " fill="#FDFDFD" transform="translate(28,0)"/>
<path d="M0 0 C1.65 0 3.3 0 5 0 C5 1.65 5 3.3 5 5 C3.35 5 1.7 5 0 5 C0 3.35 0 1.7 0 0 Z " fill="#FDFDFD" transform="translate(17,0)"/>
<path d="M0 0 C1.65 0 3.3 0 5 0 C5 1.65 5 3.3 5 5 C3.35 5 1.7 5 0 5 C0 3.35 0 1.7 0 0 Z " fill="#E1E1E1" transform="translate(11,0)"/>
<path d="M0 0 C1.65 0 3.3 0 5 0 C5 1.65 5 3.3 5 5 C3.35 5 1.7 5 0 5 C0 3.35 0 1.7 0 0 Z " fill="#FDFCFD" transform="translate(6,0)"/>
<path d="M0 0 C1.65 0 3.3 0 5 0 C5 1.65 5 3.3 5 5 C3.35 5 1.7 5 0 5 C0 3.35 0 1.7 0 0 Z " fill="#E0E0E0" transform="translate(0,0)"/>
<path d="M0 0 C0.8353125 0.556875 0.8353125 0.556875 1.6875 1.125 C0.3675 1.125 -0.9525 1.125 -2.3125 1.125 C-2.3125 2.115 -2.3125 3.105 -2.3125 4.125 C-4.2925 4.125 -6.2725 4.125 -8.3125 4.125 C-7.3125 1.125 -7.3125 1.125 -5 -0.1875 C-2.3125 -0.875 -2.3125 -0.875 0 0 Z " fill="#E1DFDD" transform="translate(41.3125,74.875)"/>
<path d="M0 0 C1.65 0 3.3 0 5 0 C4.67 1.65 4.34 3.3 4 5 C2.68 5 1.36 5 0 5 C0 3.35 0 1.7 0 0 Z " fill="#FCFBFB" transform="translate(17,32)"/>
<path d="M0 0 C1.65 0 3.3 0 5 0 C4.67 1.65 4.34 3.3 4 5 C2.68 5 1.36 5 0 5 C0 3.35 0 1.7 0 0 Z " fill="#E0DFDE" transform="translate(39,16)"/>
<path d="M0 0 C0.99 0.33 1.98 0.66 3 1 C3.9765625 7.0546875 3.9765625 7.0546875 4 9 C3.34 9.66 2.68 10.32 2 11 C0.57741188 7.17679443 -0.24042276 4.08718695 0 0 Z " fill="#E4974E" transform="translate(56,49)"/>
<path d="M0 0 C2.31 0 4.62 0 7 0 C6.360625 0.20625 5.72125 0.4125 5.0625 0.625 C2.65074923 1.89538209 2.65074923 1.89538209 2.25 5.125 C2.1675 6.07375 2.085 7.0225 2 8 C1.34 8 0.68 8 0 8 C0 5.36 0 2.72 0 0 Z " fill="#E88739" transform="translate(47,58)"/>
<path d="M0 0 C5.53846154 0.61538462 5.53846154 0.61538462 7.875 2.5625 C8.431875 3.2740625 8.431875 3.2740625 9 4 C8.67 4.99 8.34 5.98 8 7 C5 6 5 6 4 4.0625 C3.67 3.381875 3.34 2.70125 3 2 C2.01 1.34 1.02 0.68 0 0 Z " fill="#E78334" transform="translate(35,44)"/>
<path d="M0 0 C1.65 0 3.3 0 5 0 C4.67 1.32 4.34 2.64 4 4 C2.68 4.33 1.36 4.66 0 5 C0 3.35 0 1.7 0 0 Z " fill="#FBFBFA" transform="translate(11,37)"/>
<path d="M0 0 C0.33 0 0.66 0 1 0 C1 2.31 1 4.62 1 7 C-0.32 6.67 -1.64 6.34 -3 6 C-2.42655063 3.13275314 -2.1385485 2.1385485 0 0 Z " fill="#FEFEFD" transform="translate(76,56)"/>
<path d="M0 0 C1.65 0 3.3 0 5 0 C4.67 1.65 4.34 3.3 4 5 C2.68 4.34 1.36 3.68 0 3 C0 2.01 0 1.02 0 0 Z " fill="#FBFBFC" transform="translate(72,27)"/>
<path d="M0 0 C1.65 0 3.3 0 5 0 C5 1.32 5 2.64 5 4 C3.35 4 1.7 4 0 4 C0 2.68 0 1.36 0 0 Z " fill="#E1E1E1" transform="translate(45,85)"/>
<path d="M0 0 C1.65 0 3.3 0 5 0 C5 1.32 5 2.64 5 4 C3.35 4 1.7 4 0 4 C0 2.68 0 1.36 0 0 Z " fill="#E0E0E0" transform="translate(95,85)"/>
<path d="M0 0 C1.65 0 3.3 0 5 0 C5 1.32 5 2.64 5 4 C3.35 4 1.7 4 0 4 C0 2.68 0 1.36 0 0 Z " fill="#E0E0E0" transform="translate(78,85)"/>
<path d="M0 0 C1.65 0 3.3 0 5 0 C5 1.32 5 2.64 5 4 C3.35 4 1.7 4 0 4 C0 2.68 0 1.36 0 0 Z " fill="#FCFCFD" transform="translate(72,85)"/>
<path d="M0 0 C1.65 0 3.3 0 5 0 C5 1.32 5 2.64 5 4 C3.35 4 1.7 4 0 4 C0 2.68 0 1.36 0 0 Z " fill="#E0E0E0" transform="translate(67,85)"/>
<path d="M0 0 C1.65 0 3.3 0 5 0 C5 1.32 5 2.64 5 4 C3.35 4 1.7 4 0 4 C0 2.68 0 1.36 0 0 Z " fill="#FDFDFD" transform="translate(61,85)"/>
<path d="M0 0 C1.65 0 3.3 0 5 0 C5 1.32 5 2.64 5 4 C3.35 4 1.7 4 0 4 C0 2.68 0 1.36 0 0 Z " fill="#E1E1E1" transform="translate(56,85)"/>
<path d="M0 0 C1.65 0 3.3 0 5 0 C5 1.32 5 2.64 5 4 C3.35 4 1.7 4 0 4 C0 2.68 0 1.36 0 0 Z " fill="#E1E1E1" transform="translate(22,85)"/>
<path d="M0 0 C1.65 0 3.3 0 5 0 C5 1.32 5 2.64 5 4 C3.35 4 1.7 4 0 4 C0 2.68 0 1.36 0 0 Z " fill="#E0E1E1" transform="translate(11,85)"/>
<path d="M0 0 C1.65 0 3.3 0 5 0 C5 1.32 5 2.64 5 4 C3.35 4 1.7 4 0 4 C0 2.68 0 1.36 0 0 Z " fill="#E0E0E0" transform="translate(0,85)"/>
<path d="M0 0 C1.65 0 3.3 0 5 0 C5 1.32 5 2.64 5 4 C3.35 4 1.7 4 0 4 C0 2.68 0 1.36 0 0 Z " fill="#FDFDFD" transform="translate(11,69)"/>
<path d="M0 0 C1.65 0 3.3 0 5 0 C5 1.32 5 2.64 5 4 C3.35 4 1.7 4 0 4 C0 2.68 0 1.36 0 0 Z " fill="#E0E0E1" transform="translate(6,69)"/>
<path d="M0 0 C1.65 0 3.3 0 5 0 C5 1.32 5 2.64 5 4 C3.35 4 1.7 4 0 4 C0 2.68 0 1.36 0 0 Z " fill="#FDFDFD" transform="translate(0,69)"/>
<path d="M0 0 C1.65 0 3.3 0 5 0 C5 1.32 5 2.64 5 4 C3.35 4 1.7 4 0 4 C0 2.68 0 1.36 0 0 Z " fill="#E0E0E0" transform="translate(89,53)"/>
<path d="M0 0 C1.65 0 3.3 0 5 0 C5 1.32 5 2.64 5 4 C3.35 4 1.7 4 0 4 C0 2.68 0 1.36 0 0 Z " fill="#FCFCFD" transform="translate(83,53)"/>
<path d="M0 0 C1.65 0 3.3 0 5 0 C5 1.32 5 2.64 5 4 C3.35 4 1.7 4 0 4 C0 2.68 0 1.36 0 0 Z " fill="#E0E0E0" transform="translate(11,53)"/>
<path d="M0 0 C1.65 0 3.3 0 5 0 C5 1.32 5 2.64 5 4 C3.35 4 1.7 4 0 4 C0 2.68 0 1.36 0 0 Z " fill="#E0E0E0" transform="translate(0,53)"/>
<path d="M0 0 C1.65 0 3.3 0 5 0 C5 1.32 5 2.64 5 4 C3.35 4 1.7 4 0 4 C0 2.68 0 1.36 0 0 Z " fill="#FCFCFD" transform="translate(11,48)"/>
<path d="M0 0 C1.65 0 3.3 0 5 0 C5 1.32 5 2.64 5 4 C3.35 4 1.7 4 0 4 C0 2.68 0 1.36 0 0 Z " fill="#FCFDFD" transform="translate(0,48)"/>
<path d="M0 0 C1.65 0 3.3 0 5 0 C5 1.32 5 2.64 5 4 C3.35 4 1.7 4 0 4 C0 2.68 0 1.36 0 0 Z " fill="#E0E0E0" transform="translate(95,43)"/>
<path d="M0 0 C1.65 0 3.3 0 5 0 C5 1.32 5 2.64 5 4 C3.35 4 1.7 4 0 4 C0 2.68 0 1.36 0 0 Z " fill="#FDFDFD" transform="translate(6,43)"/>
<path d="M0 0 C1.65 0 3.3 0 5 0 C5 1.32 5 2.64 5 4 C3.35 4 1.7 4 0 4 C0 2.68 0 1.36 0 0 Z " fill="#E0E0E0" transform="translate(0,43)"/>
<path d="M0 0 C1.65 0 3.3 0 5 0 C5 1.32 5 2.64 5 4 C3.35 4 1.7 4 0 4 C0 2.68 0 1.36 0 0 Z " fill="#FDFDFE" transform="translate(95,27)"/>
<path d="M0 0 C1.65 0 3.3 0 5 0 C5 1.32 5 2.64 5 4 C3.35 4 1.7 4 0 4 C0 2.68 0 1.36 0 0 Z " fill="#E0E0E0" transform="translate(89,27)"/>
<path d="M0 0 C1.65 0 3.3 0 5 0 C5 1.32 5 2.64 5 4 C3.35 4 1.7 4 0 4 C0 2.68 0 1.36 0 0 Z " fill="#E0E0E0" transform="translate(78,27)"/>
<path d="M0 0 C1.65 0 3.3 0 5 0 C5 1.32 5 2.64 5 4 C3.35 4 1.7 4 0 4 C0 2.68 0 1.36 0 0 Z " fill="#FCFCFC" transform="translate(22,27)"/>
<path d="M0 0 C1.65 0 3.3 0 5 0 C5 1.32 5 2.64 5 4 C3.35 4 1.7 4 0 4 C0 2.68 0 1.36 0 0 Z " fill="#E0E0E0" transform="translate(17,27)"/>
<path d="M0 0 C1.65 0 3.3 0 5 0 C5 1.32 5 2.64 5 4 C3.35 4 1.7 4 0 4 C0 2.68 0 1.36 0 0 Z " fill="#FCFCFD" transform="translate(11,27)"/>
<path d="M0 0 C1.65 0 3.3 0 5 0 C5 1.32 5 2.64 5 4 C3.35 4 1.7 4 0 4 C0 2.68 0 1.36 0 0 Z " fill="#E0E0E0" transform="translate(6,27)"/>
<path d="M0 0 C1.65 0 3.3 0 5 0 C5 1.32 5 2.64 5 4 C3.35 4 1.7 4 0 4 C0 2.68 0 1.36 0 0 Z " fill="#FDFDFE" transform="translate(0,27)"/>
<path d="M0 0 C0.66 0.99 1.32 1.98 2 3 C-3.75 7 -3.75 7 -6 7 C-4.60667426 3.63279613 -3.0210714 2.0140476 0 0 Z " fill="#D1B47B" transform="translate(45,18)"/>
<path d="M0 0 C1.65 0 3.3 0 5 0 C5 1.32 5 2.64 5 4 C3.35 4 1.7 4 0 4 C0 2.68 0 1.36 0 0 Z " fill="#E0E0E0" transform="translate(89,6)"/>
<path d="M0 0 C1.65 0 3.3 0 5 0 C5 1.32 5 2.64 5 4 C3.35 4 1.7 4 0 4 C0 2.68 0 1.36 0 0 Z " fill="#FCFCFD" transform="translate(72,6)"/>
<path d="M0 0 C1.65 0 3.3 0 5 0 C5 1.32 5 2.64 5 4 C3.35 4 1.7 4 0 4 C0 2.68 0 1.36 0 0 Z " fill="#FDFDFD" transform="translate(61,6)"/>
<path d="M0 0 C1.65 0 3.3 0 5 0 C5 1.32 5 2.64 5 4 C3.35 4 1.7 4 0 4 C0 2.68 0 1.36 0 0 Z " fill="#FCFCFC" transform="translate(45,6)"/>
<path d="M0 0 C1.65 0 3.3 0 5 0 C5 1.32 5 2.64 5 4 C3.35 4 1.7 4 0 4 C0 2.68 0 1.36 0 0 Z " fill="#FCFCFD" transform="translate(22,6)"/>
<path d="M0 0 C1.65 0 3.3 0 5 0 C5 1.32 5 2.64 5 4 C3.35 4 1.7 4 0 4 C0 2.68 0 1.36 0 0 Z " fill="#FCFDFD" transform="translate(11,6)"/>
<path d="M0 0 C1.65 0 3.3 0 5 0 C5 1.32 5 2.64 5 4 C3.35 4 1.7 4 0 4 C0 2.68 0 1.36 0 0 Z " fill="#FDFDFD" transform="translate(0,6)"/>
<path d="M0 0 C2.31 0.66 4.62 1.32 7 2 C7 2.66 7 3.32 7 4 C5.02 4 3.04 4 1 4 C0.67 2.68 0.34 1.36 0 0 Z " fill="#E4E4E3" transform="translate(54,75)"/>
<path d="M0 0 C1.4606285 2.64738916 2 3.89448334 2 7 C0.35 7 -1.3 7 -3 7 C-3 6.01 -3 5.02 -3 4 C-2.01 4 -1.02 4 0 4 C0 2.68 0 1.36 0 0 Z " fill="#FCFCFC" transform="translate(53,72)"/>
<path d="M0 0 C1.32 0 2.64 0 4 0 C4 1.65 4 3.3 4 5 C2.68 5 1.36 5 0 5 C0 3.35 0 1.7 0 0 Z " fill="#DFDDDC" transform="translate(23,74)"/>
<path d="M0 0 C-2.93720508 1.52299523 -5.9168649 2.80100302 -9 4 C-9 2.68 -9 1.36 -9 0 C-5.93109813 -1.53445094 -3.29905734 -0.54984289 0 0 Z " fill="#BBA79F" transform="translate(68,72)"/>
<path d="M0 0 C0.66 0.66 1.32 1.32 2 2 C1.67 2.66 1.34 3.32 1 4 C-0.65 4 -2.3 4 -4 4 C-4 3.01 -4 2.02 -4 1 C-2.125 0.375 -2.125 0.375 0 0 Z " fill="#FBFBFB" transform="translate(43,75)"/>
<path d="M0 0 C2.125 0.9375 2.125 0.9375 4 2 C3.67 2.66 3.34 3.32 3 4 C1.35 4 -0.3 4 -2 4 C-2 3.01 -2 2.02 -2 1 C-1.34 0.67 -0.68 0.34 0 0 Z " fill="#FAFAF9" transform="translate(30,75)"/>
<path d="M0 0 C1.98 0.99 3.96 1.98 6 3 C5.34 3.66 4.68 4.32 4 5 C2.68 5 1.36 5 0 5 C0 3.35 0 1.7 0 0 Z " fill="#E1E0DE" transform="translate(84,42)"/>
<path d="M0 0 C0.5625 1.9375 0.5625 1.9375 1 4 C0 5 0 5 -2.5625 5.0625 C-3.7690625 5.0315625 -3.7690625 5.0315625 -5 5 C-5 4.34 -5 3.68 -5 3 C-2.5 1.375 -2.5 1.375 0 0 Z " fill="#E3E2E0" transform="translate(16,42)"/>
<path d="M0 0 C0.99 0.33 1.98 0.66 3 1 C1.1875 3 1.1875 3 -1 5 C-1.99 5 -2.98 5 -4 5 C-3 2 -3 2 0 0 Z " fill="#E4CC9D" transform="translate(15,40)"/>
<path d="M0 0 C1.32 0 2.64 0 4 0 C3.6875 1.9375 3.6875 1.9375 3 4 C2.01 4.33 1.02 4.66 0 5 C0 3.35 0 1.7 0 0 Z " fill="#E2E1E0" transform="translate(34,21)"/>
</svg>
